<svg width="100" height="100" viewBox="0 0 100 100" xmlns="http://www.w3.org/2000/svg">
  <!-- Kraken head -->
  <ellipse cx="50" cy="40" rx="18" ry="15" fill="#5741D9" stroke="#4A35C4" stroke-width="2"/>
  
  <!-- Eyes -->
  <circle cx="45" cy="37" r="3" fill="#FFFFFF"/>
  <circle cx="55" cy="37" r="3" fill="#FFFFFF"/>
  <circle cx="45" cy="37" r="1.5" fill="#1A1A1A"/>
  <circle cx="55" cy="37" r="1.5" fill="#1A1A1A"/>
  
  <!-- Tentacles -->
  <!-- Left side tentacles -->
  <path d="M32 50 Q25 55 20 65 Q15 70 18 75 Q22 70 28 65 Q35 60 40 55" 
        fill="none" stroke="#5741D9" stroke-width="4" stroke-linecap="round"/>
  
  <path d="M35 52 Q28 60 25 70 Q20 78 25 82 Q30 78 35 70 Q40 62 42 58" 
        fill="none" stroke="#5741D9" stroke-width="3.5" stroke-linecap="round"/>
  
  <path d="M38 54 Q32 62 30 72 Q28 80 32 84 Q36 80 38 72 Q40 64 41 60" 
        fill="none" stroke="#5741D9" stroke-width="3" stroke-linecap="round"/>
  
  <!-- Right side tentacles -->
  <path d="M68 50 Q75 55 80 65 Q85 70 82 75 Q78 70 72 65 Q65 60 60 55" 
        fill="none" stroke="#5741D9" stroke-width="4" stroke-linecap="round"/>
  
  <path d="M65 52 Q72 60 75 70 Q80 78 75 82 Q70 78 65 70 Q60 62 58 58" 
        fill="none" stroke="#5741D9" stroke-width="3.5" stroke-linecap="round"/>
  
  <path d="M62 54 Q68 62 70 72 Q72 80 68 84 Q64 80 62 72 Q60 64 59 60" 
        fill="none" stroke="#5741D9" stroke-width="3" stroke-linecap="round"/>
  
  <!-- Bottom tentacles -->
  <path d="M45 55 Q40 65 35 75 Q30 85 35 88 Q40 85 45 75 Q48 65 50 60" 
        fill="none" stroke="#5741D9" stroke-width="3.5" stroke-linecap="round"/>
  
  <path d="M55 55 Q60 65 65 75 Q70 85 65 88 Q60 85 55 75 Q52 65 50 60" 
        fill="none" stroke="#5741D9" stroke-width="3.5" stroke-linecap="round"/>
  
  <!-- Highlight on head -->
  <ellipse cx="47" cy="35" rx="6" ry="4" fill="#6B51E8" opacity="0.6"/>
  
  <!-- Sucker details on tentacles -->
  <circle cx="25" cy="68" r="2" fill="#4A35C4" opacity="0.7"/>
  <circle cx="30" cy="72" r="1.5" fill="#4A35C4" opacity="0.7"/>
  <circle cx="75" cy="68" r="2" fill="#4A35C4" opacity="0.7"/>
  <circle cx="70" cy="72" r="1.5" fill="#4A35C4" opacity="0.7"/>
  <circle cx="42" cy="78" r="1.5" fill="#4A35C4" opacity="0.7"/>
  <circle cx="58" cy="78" r="1.5" fill="#4A35C4" opacity="0.7"/>
</svg>